<svg width="512" height="512" viewBox="0 0 512 512" fill="none" xmlns="http://www.w3.org/2000/svg">
<path d="M114.42 200.86C114.42 196.38 117.173 194.14 122.68 194.14C128.28 194.14 131.08 196.38 131.08 200.86V300.12C131.08 304.6 128.28 306.84 122.68 306.84C117.173 306.84 114.42 304.6 114.42 300.12V200.86ZM71.86 300.12C71.86 304.6 69.06 306.84 63.46 306.84C57.9533 306.84 55.2 304.6 55.2 300.12V200.86C55.2 196.38 57.9533 194.14 63.46 194.14C69.06 194.14 71.86 196.38 71.86 200.86V300.12ZM104.62 248.18C104.62 251.447 103.5 254.2 101.26 256.44C99.02 258.68 96.2667 259.8 93 259.8C89.8267 259.8 87.12 258.68 84.88 256.44C82.64 254.2 81.52 251.447 81.52 248.18C81.52 244.913 82.64 242.16 84.88 239.92C87.12 237.68 89.8267 236.56 93 236.56C96.2667 236.56 99.02 237.68 101.26 239.92C103.5 242.16 104.62 244.913 104.62 248.18ZM195.127 221.72C197.553 221.72 200.027 222.233 202.547 223.26C205.16 224.287 207.68 225.593 210.107 227.18H209.967C212.393 228.953 214.26 231.287 215.567 234.18C216.873 236.98 217.527 240.247 217.527 243.98V283.74C217.527 291.393 215.007 297.04 209.967 300.68C205.02 304.227 200.073 306 195.127 306H172.727C170.3 306 167.827 305.58 165.307 304.74C162.787 303.9 160.313 302.547 157.887 300.68C152.847 297.133 150.327 291.487 150.327 283.74V243.98C150.327 240.247 150.98 236.98 152.287 234.18C153.593 231.287 155.46 228.953 157.887 227.18H157.747C160.08 225.593 162.553 224.287 165.167 223.26C167.78 222.233 170.3 221.72 172.727 221.72H195.127ZM192.607 292.84C196.06 292.84 198.487 291.86 199.887 289.9C201.38 287.94 202.127 285.84 202.127 283.6V244.12C202.127 241.787 201.38 239.687 199.887 237.82C198.487 235.86 196.06 234.88 192.607 234.88H175.247C171.793 234.88 169.32 235.86 167.827 237.82C166.427 239.687 165.727 241.787 165.727 244.12V283.6C165.727 285.84 166.427 287.94 167.827 289.9C169.32 291.86 171.793 292.84 175.247 292.84H192.607ZM251.189 300.54C251.189 304.927 248.622 307.12 243.489 307.12C238.262 307.12 235.649 304.927 235.649 300.54V200.16C235.649 195.773 238.262 193.58 243.489 193.58C248.622 193.58 251.189 195.773 251.189 200.16V300.54ZM315.303 221.72C317.729 221.72 320.203 222.233 322.723 223.26C325.336 224.287 327.856 225.593 330.283 227.18H330.143C332.569 228.953 334.436 231.287 335.743 234.18C337.049 236.98 337.702 240.247 337.702 243.98V283.74C337.702 291.393 335.183 297.04 330.143 300.68C325.196 304.227 320.249 306 315.303 306H292.903C290.476 306 288.003 305.58 285.483 304.74C282.963 303.9 280.489 302.547 278.062 300.68C273.023 297.133 270.503 291.487 270.503 283.74V243.98C270.503 240.247 271.156 236.98 272.463 234.18C273.769 231.287 275.636 228.953 278.062 227.18H277.923C280.256 225.593 282.729 224.287 285.343 223.26C287.956 222.233 290.476 221.72 292.903 221.72H315.303ZM312.783 292.84C316.236 292.84 318.663 291.86 320.063 289.9C321.556 287.94 322.303 285.84 322.303 283.6V244.12C322.303 241.787 321.556 239.687 320.063 237.82C318.663 235.86 316.236 234.88 312.783 234.88H295.423C291.969 234.88 289.496 235.86 288.003 237.82C286.603 239.687 285.903 241.787 285.903 244.12V283.6C285.903 285.84 286.603 287.94 288.003 289.9C289.496 291.86 291.969 292.84 295.423 292.84H312.783Z" fill="black"/>
<path d="M370.805 300.12C370.805 304.6 368.238 306.84 363.105 306.84C357.972 306.84 355.405 304.6 355.405 300.12V243.84C355.405 240.013 356.012 236.7 357.225 233.9C358.438 231.1 360.352 228.813 362.965 227.04C367.912 223.493 372.858 221.72 377.805 221.72H400.345C405.105 221.72 410.052 223.493 415.185 227.04C420.225 230.587 422.745 236.187 422.745 243.84V300.12C422.745 304.6 420.178 306.84 415.045 306.84C409.912 306.84 407.345 304.6 407.345 300.12V245.1C407.345 242.673 406.598 240.34 405.105 238.1L405.245 238.24C404.032 236 401.558 234.88 397.825 234.88H380.325C376.498 234.88 373.978 236 372.765 238.24C371.458 240.2 370.805 242.487 370.805 245.1V300.12ZM456.674 300.12C456.674 304.6 454.107 306.84 448.974 306.84C443.747 306.84 441.134 304.6 441.134 300.12V227.88C441.134 223.4 443.747 221.16 448.974 221.16C454.107 221.16 456.674 223.4 456.674 227.88V300.12ZM459.614 203.52C459.614 206.507 458.587 209.027 456.534 211.08C454.481 213.133 451.961 214.16 448.974 214.16C445.987 214.16 443.421 213.133 441.274 211.08C439.221 209.027 438.194 206.507 438.194 203.52C438.194 200.44 439.221 197.873 441.274 195.82C443.421 193.767 445.987 192.74 448.974 192.74C451.961 192.74 454.481 193.767 456.534 195.82C458.587 197.873 459.614 200.44 459.614 203.52Z" fill="#ED4C67"/>
<circle cx="93" cy="248" r="12" fill="#ED4C67"/>
</svg>
